<svg width="73" height="48" viewBox="0 0 73 48" fill="none" xmlns="http://www.w3.org/2000/svg">
<path d="M31.2904 41.43C28.2679 45.7047 23.9717 47.842 18.4017 47.842C12.8317 47.842 8.53548 45.7047 5.513 41.43C2.44735 37.1122 0.914527 31.4127 0.914527 24.3315C0.914527 17.2502 2.44735 11.5507 5.513 7.2329C8.53548 2.95826 12.8317 0.820936 18.4017 0.820936C23.9717 0.820936 28.2679 2.95826 31.2904 7.2329C34.356 11.5507 35.8889 17.2502 35.8889 24.3315C35.8889 31.4127 34.356 37.1122 31.2904 41.43ZM6.93788 24.3315C6.93788 29.9446 7.93098 34.284 9.91718 37.3497C11.9034 40.4153 14.7315 41.9482 18.4017 41.9482C22.0718 41.9482 24.9 40.4153 26.8862 37.3497C28.9156 34.284 29.9303 29.9446 29.9303 24.3315C29.9303 18.7183 28.9156 14.3789 26.8862 11.3132C24.9 8.20441 22.0718 6.64999 18.4017 6.64999C14.7315 6.64999 11.9034 8.18282 9.91718 11.2485C7.93098 14.3141 6.93788 18.6751 6.93788 24.3315ZM38.4375 5.80802L50.3547 1.66291H55.5361V47H49.5775V8.13964L39.9272 10.9894L38.4375 5.80802ZM68.4536 47.7124C67.2878 47.7124 66.2947 47.3022 65.4743 46.4819C64.654 45.6615 64.2438 44.6684 64.2438 43.5026C64.2438 42.3368 64.654 41.3437 65.4743 40.5233C66.2947 39.7029 67.2878 39.2927 68.4536 39.2927C69.6626 39.2927 70.6557 39.7029 71.4329 40.5233C72.2533 41.3437 72.6635 42.3368 72.6635 43.5026C72.6635 44.6684 72.2533 45.6615 71.4329 46.4819C70.6557 47.3022 69.6626 47.7124 68.4536 47.7124Z" fill="#75BF7A"/>
</svg>
