<svg width="85" height="48" viewBox="0 0 85 48" fill="none" xmlns="http://www.w3.org/2000/svg">
<path d="M31.2904 41.43C28.2679 45.7047 23.9717 47.842 18.4017 47.842C12.8317 47.842 8.53548 45.7047 5.513 41.43C2.44735 37.1122 0.914527 31.4127 0.914527 24.3315C0.914527 17.2502 2.44735 11.5507 5.513 7.2329C8.53548 2.95826 12.8317 0.820936 18.4017 0.820936C23.9717 0.820936 28.2679 2.95826 31.2904 7.2329C34.356 11.5507 35.8889 17.2502 35.8889 24.3315C35.8889 31.4127 34.356 37.1122 31.2904 41.43ZM6.93788 24.3315C6.93788 29.9446 7.93098 34.284 9.91718 37.3497C11.9034 40.4153 14.7315 41.9482 18.4017 41.9482C22.0718 41.9482 24.9 40.4153 26.8862 37.3497C28.9156 34.284 29.9303 29.9446 29.9303 24.3315C29.9303 18.7183 28.9156 14.3789 26.8862 11.3132C24.9 8.20441 22.0718 6.64999 18.4017 6.64999C14.7315 6.64999 11.9034 8.18282 9.91718 11.2485C7.93098 14.3141 6.93788 18.6751 6.93788 24.3315ZM69.58 47H40.3052V42.0777L56.3027 25.7563C60.5773 21.4817 62.7146 17.8116 62.7146 14.7459C62.7146 12.2416 61.9374 10.277 60.383 8.85208C58.8718 7.38402 56.9719 6.64999 54.6835 6.64999C50.4089 6.64999 47.3 8.67937 45.357 12.7381L40.3052 9.75882C41.6869 6.86588 43.6299 4.6638 46.1342 3.15256C48.6386 1.59814 51.4667 0.820936 54.6187 0.820936C58.4616 0.820936 61.7647 2.0731 64.5281 4.57744C67.3347 7.12495 68.738 10.4929 68.738 14.6811C68.738 19.258 66.0394 24.2451 60.6421 29.6424L49.0487 41.1709H69.58V47ZM79.965 47.7124C78.7992 47.7124 77.8061 47.3022 76.9857 46.4819C76.1653 45.6615 75.7551 44.6684 75.7551 43.5026C75.7551 42.3368 76.1653 41.3437 76.9857 40.5233C77.8061 39.7029 78.7992 39.2927 79.965 39.2927C81.174 39.2927 82.1671 39.7029 82.9443 40.5233C83.7647 41.3437 84.1749 42.3368 84.1749 43.5026C84.1749 44.6684 83.7647 45.6615 82.9443 46.4819C82.1671 47.3022 81.174 47.7124 79.965 47.7124Z" fill="#75BF7A"/>
</svg>
