<svg width="83" height="48" viewBox="0 0 83 48" fill="none" xmlns="http://www.w3.org/2000/svg">
<path d="M31.2904 41.43C28.2679 45.7047 23.9717 47.842 18.4017 47.842C12.8317 47.842 8.53548 45.7047 5.513 41.43C2.44735 37.1122 0.914527 31.4127 0.914527 24.3315C0.914527 17.2502 2.44735 11.5507 5.513 7.2329C8.53548 2.95826 12.8317 0.820936 18.4017 0.820936C23.9717 0.820936 28.2679 2.95826 31.2904 7.2329C34.356 11.5507 35.8889 17.2502 35.8889 24.3315C35.8889 31.4127 34.356 37.1122 31.2904 41.43ZM6.93788 24.3315C6.93788 29.9446 7.93098 34.284 9.91718 37.3497C11.9034 40.4153 14.7315 41.9482 18.4017 41.9482C22.0718 41.9482 24.9 40.4153 26.8862 37.3497C28.9156 34.284 29.9303 29.9446 29.9303 24.3315C29.9303 18.7183 28.9156 14.3789 26.8862 11.3132C24.9 8.20441 22.0718 6.64999 18.4017 6.64999C14.7315 6.64999 11.9034 8.18282 9.91718 11.2485C7.93098 14.3141 6.93788 18.6751 6.93788 24.3315ZM67.5889 6.97383L57.7443 20.2511C61.2849 20.8988 64.1346 22.41 66.2935 24.7848C68.4525 27.1596 69.5319 30.0957 69.5319 33.5932C69.5319 38.0405 68.0207 41.5164 64.9982 44.0207C61.9325 46.5682 58.2624 47.842 53.9878 47.842C50.4472 47.842 47.3599 47.0432 44.726 45.4456C42.0922 43.848 40.2139 41.5811 39.0913 38.645L44.1431 35.6657C45.4817 39.854 48.7632 41.9482 53.9878 41.9482C56.8375 41.9482 59.126 41.2141 60.8531 39.7461C62.6234 38.2348 63.5085 36.1839 63.5085 33.5932C63.5085 31.0025 62.6234 28.9515 60.8531 27.4403C59.126 25.929 56.8375 25.1734 53.9878 25.1734H52.4333L50.037 21.4817L60.5293 7.29766H40.3866V1.66291H67.5889V6.97383ZM78.5103 47.7124C77.3445 47.7124 76.3514 47.3022 75.531 46.4819C74.7106 45.6615 74.3004 44.6684 74.3004 43.5026C74.3004 42.3368 74.7106 41.3437 75.531 40.5233C76.3514 39.7029 77.3445 39.2927 78.5103 39.2927C79.7193 39.2927 80.7124 39.7029 81.4896 40.5233C82.31 41.3437 82.7201 42.3368 82.7201 43.5026C82.7201 44.6684 82.31 45.6615 81.4896 46.4819C80.7124 47.3022 79.7193 47.7124 78.5103 47.7124Z" fill="#75BF7A"/>
</svg>
