<svg width="57" height="57" viewBox="0 0 57 57" fill="none" xmlns="http://www.w3.org/2000/svg">
<path d="M21.6244 38.8521H36.3062V34.1021H29.0579L32.6358 30.4933C34.6098 28.5193 35.9978 26.2985 35.9978 23.7076C35.9978 19.3586 32.5432 16.8294 28.6877 16.8294C25.6959 16.8294 22.7965 18.3407 21.4085 21.5485L25.5725 23.9852C26.1585 22.6281 27.2381 21.6411 28.7494 21.6411C30.1991 21.6411 31.0627 22.5664 31.0627 23.9235C31.0627 25.1881 30.1374 26.4527 28.8728 27.7482L21.6244 35.2741V38.8521Z" fill="#75BF7A"/>
<path d="M54.2013 18.0366L54.0615 17.6959L53.8018 17.957L48.6302 23.156L48.5316 23.2551L48.567 23.3904C48.9994 25.0387 49.2158 26.7417 49.2158 28.5C49.2158 39.9123 39.9396 49.1884 28.5274 49.1884C17.0875 49.1884 7.81161 39.9121 7.81161 28.5C7.81161 26.7138 8.02811 24.9835 8.46033 23.3357L8.49581 23.2004L8.39718 23.1012L3.22554 17.9022L2.96501 17.6403L2.82581 17.9825C1.50106 21.2392 0.755556 24.7729 0.755556 28.5C0.755556 43.7942 13.2058 56.2445 28.5 56.2445C43.7942 56.2445 56.2445 43.7942 56.2445 28.5C56.2445 24.8015 55.5268 21.2675 54.2013 18.0366ZM45.7 17.0068L45.8656 17.2538L46.0758 17.0435L50.7823 12.337L50.9313 12.188L50.8059 12.0187C45.7545 5.2007 37.6383 0.755556 28.5 0.755556C19.3895 0.755556 11.2731 5.17302 6.2215 11.9913L6.09604 12.1606L6.24506 12.3097L10.9515 17.0161L11.1618 17.2264L11.3274 16.9794C14.4647 12.3006 19.4678 8.97445 25.2542 8.05494C26.3084 7.89279 27.3903 7.81161 28.5 7.81161C29.6098 7.81161 30.6917 7.8928 31.7459 8.05496C37.5591 8.97441 42.5624 12.3275 45.7 17.0068Z" fill="#75BF7A" stroke="#75BF7A" stroke-width="0.488889"/>
</svg>
