<svg width="247" height="175" viewBox="0 0 247 175" fill="none" xmlns="http://www.w3.org/2000/svg">
<path d="M51.381 168.038C46.2196 157.869 36.6856 133.75 60.5821 94.416C84.4787 55.0824 144.436 59.6517 168.333 75.027C192.229 90.4023 203.9 110.285 206.37 131.218C208.778 152.15 198.304 168.038 198.304 168.038H51.381Z" fill="#75BF7A"/>
<path d="M227.797 105.901H200.257C198.528 105.901 197.169 104.543 197.169 102.814V89.044C197.169 87.315 198.528 85.9565 200.257 85.9565H227.797C229.525 85.9565 230.884 87.315 230.884 89.044V102.814C230.884 104.543 229.464 105.901 227.797 105.901Z" fill="#75BF7A"/>
<path d="M214.027 113.743L218.35 103.369H209.643L214.027 113.743Z" fill="#75BF7A"/>
<path d="M213.903 92.5634H221.807V93.6749L225.635 91.4519L221.807 89.229V90.4022H213.903V92.5634Z" fill="#263238"/>
<path d="M225.635 97.0707H217.732V95.8975L213.903 98.1821L217.732 100.405V99.2319H225.635V97.0707Z" fill="white"/>
<path d="M209.026 99.1082L208.655 99.2317C208.655 99.2317 207.482 97.8732 206.864 96.453C206.247 94.9711 206.247 93.2421 206.247 93.2421L206.494 93.1186L204.827 89.105C204.518 89.352 204.271 89.6607 204.024 90.0312C203.098 91.6367 203.159 94.0448 204.147 96.453C205.074 98.8612 206.123 100.961 207.976 102.319C209.087 103.122 210.014 103.245 210.755 103.122L209.026 99.1082Z" fill="#263238"/>
<path d="M210.26 98.6147L209.766 98.8L211.495 102.875C211.68 102.814 211.866 102.752 211.989 102.628C212.421 102.381 212.607 101.887 212.421 101.393L211.557 99.1705C211.31 98.6765 210.754 98.4295 210.26 98.6147Z" fill="#263238"/>
<path d="M206.185 88.4262C206 88.488 205.753 88.6115 205.506 88.735L207.235 92.8104L207.791 92.5634C208.285 92.3781 208.532 91.7607 208.346 91.2667L207.42 88.982C207.235 88.488 206.679 88.241 206.185 88.4262Z" fill="#263238"/>
<path d="M51.6288 171.292V125.29C51.6288 125.29 51.1348 112.878 57.6183 109.297C64.1636 105.715 91.5798 107.63 91.5798 107.63V171.23H51.6288V171.292Z" fill="#75BF7A"/>
<path d="M100.225 64.5918C100.225 64.5918 98.5577 78.5469 97.9402 79.6583C97.3227 80.8316 97.3227 80.8316 97.3227 80.8316L94.1118 82.9927C94.1118 82.9927 100.225 91.6992 107.758 93.0577C115.291 94.4779 114.674 89.9703 114.674 89.9703L113.501 87.5621L115.044 74.2863C115.044 74.348 101.336 68.0497 100.225 64.5918Z" fill="#FF9D8C"/>
<path d="M90.0977 84.1661L95.0993 82.0049C95.0993 82.0049 98.3102 87.2535 105.72 90.2791C113.13 93.3048 113.253 91.5758 113.624 90.2791C113.994 88.9824 113.5 87.624 113.5 87.624L114.056 83.1781L117.02 84.1661L127.27 167.341L100.842 168.638L90.0977 84.1661Z" fill="white"/>
<path d="M114.55 83.2397C114.55 83.2397 116.341 87.3769 118.008 97.0713C119.675 106.766 121.219 123.129 121.59 134.367C121.96 145.605 122.207 171.293 122.207 171.293C122.207 171.293 155.181 171.293 155.551 171.293C155.922 171.293 158.206 158.634 158.206 158.634C158.206 158.634 143.634 146.161 142.893 144.123C142.399 142.765 142.646 117.51 140.485 105.901C138.323 94.2927 135.483 91.9462 129.617 89.0441C123.504 86.0184 114.55 83.2397 114.55 83.2397Z" fill="#263238"/>
<path d="M131.901 156.658C131.716 156.658 131.593 156.534 131.593 156.349C131.593 155.423 131.407 142.456 131.284 129.921C131.099 117.386 130.975 104.419 130.975 103.493C130.975 103.308 131.099 103.184 131.284 103.184C131.469 103.184 131.593 103.308 131.593 103.493C131.593 104.419 131.778 117.386 131.901 129.921C132.087 142.456 132.21 155.423 132.21 156.349C132.21 156.534 132.087 156.658 131.901 156.658Z" fill="#263238"/>
<path d="M65.4609 153.509L65.2139 171.293H104.053C104.053 171.293 105.721 156.226 105.103 154.806C104.424 153.386 65.4609 153.509 65.4609 153.509Z" fill="#263238"/>
<path d="M108.685 79.2873C110.29 80.5841 112.451 81.572 114.119 82.1895L115.045 74.2857C115.045 74.2857 104.795 69.5929 101.275 66.0732C102.016 70.0869 103.807 75.3972 108.685 79.2873Z" fill="#263238"/>
<path d="M127.024 38.6568C127.024 38.6568 129.679 43.2262 130.234 48.907C130.728 54.5261 130.234 68.9752 125.665 75.0882C121.096 81.2013 111.463 79.4106 107.141 75.7057C103.127 72.3096 99.2369 68.5429 98.1872 61.1331C97.1374 53.7234 100.348 39.6448 109.425 36.7426C118.502 33.8404 127.024 38.6568 127.024 38.6568Z" fill="#FF9D8C"/>
<path d="M138.57 163.265C138.57 163.265 138.138 163.265 137.459 163.265C137.273 163.265 137.088 163.265 136.965 163.265C136.285 163.265 135.483 163.203 134.68 163.203C134.495 163.203 134.31 163.203 134.124 163.203C133.322 163.203 132.642 163.265 131.963 163.265C131.84 163.265 131.654 163.265 131.469 163.265C131.407 163.265 131.346 163.265 131.284 163.265C130.913 163.203 130.852 163.141 130.419 162.956C129.925 162.709 122.886 161.165 117.144 161.165C111.463 161.165 106.338 161.597 105.473 160.857C104.609 160.177 104.115 152.953 108.993 152.521L114.982 154.805C114.982 154.805 128.629 153.2 133.692 156.905C138.694 160.548 138.57 163.265 138.57 163.265Z" fill="#FF9D8C"/>
<path d="M131.963 163.203C131.84 163.203 131.655 163.203 131.469 163.203C131.346 163.018 131.099 162.648 130.975 162.524C129.432 160.919 125.727 159.931 124.368 159.622C124.245 159.56 124.183 159.498 124.183 159.313C124.183 159.19 124.307 159.128 124.492 159.128C126.468 159.622 130.667 160.795 131.84 162.833C131.778 162.895 131.902 163.08 131.963 163.203Z" fill="#263238"/>
<path d="M134.618 163.203C134.433 163.203 134.248 163.203 134.063 163.203C132.395 160.116 129.617 159.251 126.221 158.14L126.035 158.078C125.912 158.016 125.85 157.893 125.912 157.769C125.974 157.646 126.097 157.584 126.221 157.646L126.406 157.708C129.987 158.819 132.889 159.745 134.618 163.203Z" fill="#263238"/>
<path d="M137.459 163.265C137.274 163.265 137.088 163.265 136.903 163.265C135.853 161.104 132.519 157.522 128.011 156.658C127.888 156.658 127.826 156.534 127.826 156.411C127.826 156.287 127.95 156.226 128.073 156.226C132.704 157.09 136.409 160.857 137.459 163.265Z" fill="#263238"/>
<path d="M101.213 54.8352C101.213 54.8352 104.053 53.4767 106.029 49.7101C108.005 45.9434 107.758 42.5473 107.758 42.5473C107.758 42.5473 111.34 41.9915 116.712 43.597C122.084 45.2024 128.444 47.3636 133.816 44.2762C139.188 41.1888 139.188 36.3107 136.533 34.273C133.569 31.9883 127.765 33.4086 127.765 33.4086C127.765 33.4086 129.988 31.2474 128.814 29.9507C127.579 28.6539 123.195 30.3211 123.195 30.3211C123.195 30.3211 117.823 26.0605 107.697 26.5545C97.5699 27.0485 92.6918 34.1495 92.136 42.0533C91.5803 49.9571 94.4207 57.9226 94.4207 57.9226L101.213 54.8352Z" fill="#263238"/>
<path d="M121.837 56.7492C121.281 58.1694 121.281 59.8366 121.158 61.3186C121.034 62.4918 120.849 63.8503 121.899 64.653C122.393 65.0235 124.863 66.0732 123.566 66.8759C123.072 67.1847 122.269 67.1229 121.775 67.0612C121.405 67.0612 121.034 66.9994 120.664 66.9994C120.293 66.9994 119.861 66.8759 119.49 66.8759C119.243 66.8759 119.182 67.1847 119.367 67.3082C119.984 67.7404 120.972 67.8639 121.713 67.8639C122.454 67.8639 122.948 67.8639 123.628 67.4934C124.06 67.3082 124.43 66.9994 124.492 66.5054C124.554 65.9497 124.122 65.4557 123.751 65.147C123.257 64.7765 122.701 64.5912 122.207 64.2825C121.528 63.7885 121.59 62.9858 121.652 62.2448C121.775 60.4541 122.207 58.6634 122.331 56.811C122.331 56.564 121.899 56.564 121.837 56.7492Z" fill="#263238"/>
<path d="M127.085 61.0099C126.9 62.0596 126.097 62.8624 125.356 62.7389C124.554 62.6154 124.121 61.6274 124.307 60.5159C124.492 59.4662 125.295 58.6635 126.036 58.787C126.777 58.9722 127.271 59.9602 127.085 61.0099Z" fill="#263238"/>
<path d="M117.267 60.1451C117.082 61.3183 116.279 62.121 115.415 61.9975C114.55 61.874 114.056 60.8243 114.241 59.6511C114.427 58.4779 115.229 57.6752 116.094 57.7987C116.958 57.9221 117.452 58.9719 117.267 60.1451Z" fill="#263238"/>
<path d="M124.8 56.564C125.418 56.6875 125.973 56.564 126.591 56.6257C126.714 56.6257 126.9 56.6875 127.023 56.6875C127.147 56.6875 126.838 56.6875 126.961 56.6875H127.023C127.085 56.6875 127.147 56.6875 127.27 56.7492C127.394 56.811 127.517 56.811 127.641 56.8727C127.764 56.8727 127.888 56.9345 128.011 56.9345C128.073 56.9345 128.135 56.9345 128.196 56.9345C128.135 56.9345 128.135 56.9345 128.073 56.9345H128.32C128.69 56.8727 128.876 56.4405 128.752 56.1318C128.752 56.0083 128.69 55.9465 128.629 55.8848C128.629 55.823 128.567 55.823 128.567 55.7613L128.629 55.823C128.629 55.7613 128.567 55.7613 128.567 55.6995C128.505 55.6378 128.505 55.576 128.443 55.576C128.382 55.5143 128.32 55.5143 128.32 55.4525C128.135 55.329 127.949 55.2673 127.764 55.2055C127.394 55.1438 127.023 55.082 126.653 55.082C126.282 55.082 125.912 55.1438 125.541 55.1438C125.232 55.2055 124.862 55.2673 124.615 55.5143C124.43 55.6378 124.306 55.8848 124.306 56.1318C124.368 56.317 124.553 56.564 124.8 56.564Z" fill="#263238"/>
<path d="M117.946 54.8971C117.884 54.8353 117.761 54.8353 117.699 54.7736C117.637 54.7118 117.452 54.6501 117.576 54.7118C117.514 54.7118 117.452 54.6501 117.39 54.6501C117.143 54.5266 116.896 54.4648 116.649 54.4031C116.094 54.2796 115.476 54.2178 114.859 54.2796C114.241 54.3413 113.624 54.5266 113.068 54.8353C113.006 54.8971 112.883 54.9588 112.821 55.0206C112.759 55.0823 112.759 55.1441 112.697 55.2058C112.697 55.2058 112.697 55.1441 112.759 55.1441C112.574 55.2676 112.512 55.4528 112.512 55.6381C112.512 55.8233 112.636 56.0085 112.759 56.0703C112.944 56.1938 113.191 56.132 113.377 56.0703C113.253 56.0703 113.191 56.0703 113.068 56.0703C113.253 56.0703 113.377 56.132 113.562 56.0703C113.562 56.0703 113.747 56.0085 113.624 56.0703C113.5 56.0703 113.809 56.0703 113.809 56.0703C113.871 56.0703 114.056 56.0703 113.809 56.0703C113.871 56.0703 113.871 56.0703 113.932 56.0703C114.056 56.0703 114.118 56.0703 114.241 56.0085C114.673 55.9468 115.106 55.9468 115.476 55.9468C115.847 55.9468 116.279 55.9468 116.649 55.9468C116.835 55.9468 116.958 55.9468 117.143 55.9468C117.205 55.9468 117.267 55.9468 117.143 55.9468C117.205 55.9468 117.205 55.9468 117.267 55.9468C117.329 55.9468 117.39 56.0085 117.452 56.0085C117.699 56.132 118.07 55.885 118.131 55.6381C118.317 55.3293 118.255 55.0206 117.946 54.8971Z" fill="#263238"/>
<path d="M121.034 72.6182C121.589 71.445 122.701 70.5805 123.936 70.0248C122.886 69.9013 117.823 69.469 116.526 70.1483C115.106 70.951 116.773 74.2237 119.737 74.4089C120.046 74.4089 120.354 74.4089 120.601 74.3471C120.601 73.7914 120.725 73.1739 121.034 72.6182Z" fill="#263238"/>
<path d="M97.6313 65.7652C97.6313 65.7652 98.1253 67.7411 101.089 70.0258C104.053 72.3105 108.314 73.9777 108.314 73.9777L108.684 72.4957C108.684 72.4957 104.3 70.5816 102.262 68.4821C100.225 66.3827 99.9778 65.2095 99.9778 65.2095L97.6313 65.7652Z" fill="#263238"/>
<path d="M109.178 71.4453C111.525 71.3218 112.883 73.1743 113.007 74.4092C113.192 75.6442 112.019 77.0027 109.364 75.7677C106.091 74.2857 106.77 71.5688 109.178 71.4453Z" fill="#263238"/>
<path d="M99.4839 51.1301C99.4839 51.1301 100.534 43.7821 105.412 38.7805C114.797 29.2713 122.763 29.827 122.763 29.827C122.763 29.827 122.701 28.4685 119.676 27.4806C116.835 26.4926 115.6 27.0483 115.6 27.0483C115.6 27.0483 107.882 27.6658 101.336 34.8904C94.791 42.1149 94.1118 51.3154 94.1118 51.3154L99.4839 51.1301Z" fill="#263238"/>
<path d="M98.8043 50.2659C92.6295 49.2162 89.2334 54.0326 88.9864 58.9107C88.7394 63.7888 92.259 67.4319 96.9519 67.0614C107.573 66.197 106.338 51.5009 98.8043 50.2659Z" fill="white"/>
<path d="M95.7167 62.307C94.1113 62.307 92.6911 61.5042 91.9501 60.084C91.0856 58.5403 91.2091 56.6261 92.1353 55.2677C92.1971 55.1442 92.3206 55.1442 92.4441 55.2059C92.5676 55.2677 92.5676 55.4529 92.5058 55.5147C91.6413 56.7496 91.5796 58.4786 92.3206 59.837C93.0615 61.1337 94.2965 61.8747 95.8402 61.8747C97.2604 61.813 98.4336 61.1955 99.1746 60.084C100.039 58.7873 100.224 56.9966 99.6686 55.5764C99.1129 54.0945 97.6309 53.1065 96.2107 53.2917C96.0872 53.2917 95.9637 53.23 95.9637 53.1065C95.9637 52.983 96.0255 52.8595 96.149 52.8595C97.7544 52.6742 99.4833 53.724 100.101 55.3912C100.718 56.9966 100.471 58.9108 99.5451 60.331C98.6806 61.566 97.3839 62.307 95.8402 62.3687C95.8402 62.307 95.7785 62.307 95.7167 62.307Z" fill="#263238"/>
<path d="M91.2715 82.3745C91.2715 82.3745 72.6235 86.9439 66.0782 94.3537C59.5329 101.763 56.5072 138.318 56.3837 145.049C56.2602 151.841 60.9531 154.62 63.7935 156.534C66.6339 158.448 78.9836 161.906 88.9868 162.4C98.9282 162.894 108.376 162.4 108.376 162.4C108.376 162.4 108.314 160.239 109.858 157.028C111.278 154.064 113.069 153.447 113.069 153.447L104.486 150.359C104.486 150.359 103.004 123.499 100.657 110.47C98.0637 95.6504 91.2715 82.3745 91.2715 82.3745Z" fill="#263238"/>
<path d="M122.207 146.161C122.146 146.161 122.146 146.161 122.084 146.161C121.899 146.099 121.837 145.914 121.899 145.729C123.628 141.777 125.48 134.058 126.468 128.624L126.53 128.192C126.839 126.587 127.209 124.611 126.468 123.252C126.098 122.573 125.171 121.029 124.369 119.547C123.504 118.004 122.64 116.584 122.454 116.151C122.022 115.287 123.442 113.064 125.48 110.038C126.036 109.236 126.53 108.495 126.777 108.001C127.518 106.766 127.024 105.592 126.468 104.234L126.283 103.802C125.789 102.567 125.171 101.27 124.616 100.097C124.369 99.6028 124.183 99.1088 123.936 98.6148C123.628 97.9356 123.319 97.2564 123.01 96.5771C121.219 92.5635 119.367 88.3646 116.959 84.351C116.897 84.2275 116.897 84.0423 117.082 83.9188C117.206 83.857 117.391 83.857 117.515 84.0423C119.923 88.1176 121.775 92.2548 123.628 96.3301C123.936 97.0094 124.245 97.6886 124.554 98.3678C124.801 98.8618 124.986 99.3558 125.233 99.8498C125.789 101.085 126.406 102.32 126.9 103.616L127.086 104.049C127.641 105.407 128.259 106.827 127.394 108.371C127.086 108.865 126.592 109.606 126.036 110.409C124.986 112.014 122.763 115.349 123.072 115.904C123.319 116.337 124.122 117.757 124.986 119.239C125.851 120.721 126.715 122.203 127.086 122.944C127.95 124.487 127.579 126.648 127.209 128.316L127.147 128.748C126.777 130.724 124.801 140.851 122.516 145.976C122.393 146.099 122.331 146.161 122.207 146.161Z" fill="#263238"/>
<path d="M103.991 147.273C103.93 147.273 103.806 147.273 103.744 147.211C102.262 145.729 95.2848 133.626 94.7908 131.342C94.4821 130.107 95.223 126.958 95.9023 123.87C96.458 121.524 97.0137 119.054 96.8285 118.375C96.5815 117.387 94.7908 115.905 93.0619 114.484C90.9624 112.756 88.8012 111.027 88.369 109.421C87.875 107.63 88.3072 96.2688 88.5542 88.7972C88.6777 86.0803 88.7395 83.9809 88.7395 83.2399C88.7395 83.0546 88.863 82.9312 89.0482 82.9312C89.2335 82.9312 89.357 83.0546 89.357 83.2399C89.357 83.9809 89.2952 86.1421 89.1717 88.859C88.9247 95.8365 88.4925 107.569 88.9247 109.298C89.2952 110.718 91.4564 112.447 93.3706 114.052C95.2848 115.596 97.0755 117.078 97.3225 118.251C97.5077 119.054 97.0137 121.339 96.3962 123.994C95.7788 126.834 95.0378 130.107 95.2848 131.218C95.7788 133.441 102.695 145.359 104.115 146.779C104.238 146.902 104.238 147.087 104.115 147.211C104.115 147.211 104.053 147.273 103.991 147.273Z" fill="#263238"/>
<path d="M78.86 141.962C78.6748 141.962 78.5513 141.777 78.5513 141.591C78.7983 139.986 82.3179 108 82.5031 105.53C82.5031 105.345 82.6884 105.222 82.8119 105.222C82.9971 105.222 83.1206 105.407 83.1206 105.53C82.9354 108 79.4157 139.986 79.1688 141.591C79.1688 141.838 79.0453 141.962 78.86 141.962Z" fill="#263238"/>
<path d="M104.3 150.669C104.238 150.669 104.238 150.669 104.177 150.669C103.374 150.36 99.9161 149.187 95.532 147.705C86.6402 144.741 74.5376 140.604 72.1912 139.431C72.0677 139.369 72.0059 139.184 72.0677 138.998C72.1294 138.875 72.3147 138.813 72.4999 138.875C74.7846 140.048 87.3812 144.309 95.7172 147.149C100.101 148.631 103.621 149.804 104.424 150.113C104.609 150.175 104.671 150.36 104.609 150.545C104.547 150.607 104.424 150.669 104.3 150.669Z" fill="#263238"/>
<path d="M100.04 163.388C92.2598 163.388 77.1315 161.968 65.6464 157.893C65.4611 157.831 65.3994 157.646 65.4611 157.522C65.5229 157.337 65.7081 157.275 65.8316 157.337C80.3424 162.462 100.658 163.327 104.424 162.524C104.609 162.462 104.733 162.586 104.795 162.771C104.856 162.956 104.733 163.08 104.548 163.141C103.745 163.265 102.14 163.388 100.04 163.388Z" fill="#263238"/>
<path d="M10.7521 86.6971C13.1603 88.8583 16.2477 90.2168 18.3471 92.6867C19.2116 93.6747 19.9526 94.6626 20.6935 95.7123C21.2493 96.4533 22.793 97.6883 23.04 98.6145C23.1635 99.0467 23.1017 98.491 23.04 98.0588V97.997C22.8547 96.1446 22.6695 94.2304 22.6077 92.3162C22.546 90.402 22.6695 88.5496 22.546 86.6354C22.3607 83.9802 21.558 81.3868 19.3968 79.7196C18.3471 78.9169 16.9886 78.4229 16.0007 77.4966C15.0744 76.6322 15.4449 75.6442 16.0007 74.718C16.4947 73.7917 17.1121 72.9273 17.3591 71.9393C17.6061 70.7661 17.1739 69.5311 16.5564 68.5432C15.3214 66.4437 12.481 64.0355 9.82586 64.3443C7.60292 64.5913 7.35593 67.1847 7.41768 68.9754C7.41768 70.7043 7.60292 72.4333 7.66467 74.1622C7.66467 75.9529 7.35593 77.6819 7.35593 79.4726C7.10894 82.4365 8.52915 84.7212 10.7521 86.6971Z" fill="#75BF7A"/>
<path d="M33.2279 114.361C33.9072 112.755 34.6481 111.273 35.6361 109.791C36.9328 107.754 38.4148 105.839 39.2793 103.555C40.1437 101.27 40.0202 98.8002 40.1437 96.392C40.2055 94.6013 40.7612 92.8723 40.576 91.0816C40.5142 90.2172 40.0202 88.8587 38.9088 88.9822C38.0443 89.1057 37.5503 90.1554 37.1798 90.8347C36.6241 92.0079 36.1918 93.3046 35.7596 94.5395C35.5744 95.0335 35.4509 95.5275 35.2039 96.0215C35.0804 96.2685 34.7099 96.9477 34.3394 96.886C33.7219 96.7007 34.2776 94.169 34.4011 93.7368C34.8951 91.4521 35.5744 89.3527 35.6979 87.0063C35.8214 83.6101 35.5744 79.5347 32.24 77.6823C31.3755 77.1883 30.264 76.8796 29.4613 77.6205C28.6586 78.3615 28.4116 79.5965 28.2881 80.5845C27.9176 83.7336 28.6586 86.6975 29.6465 89.6614C30.4493 92.1314 31.4372 94.6013 31.5607 97.2565C31.6225 99.7881 30.3258 102.011 29.7083 104.357C28.7203 108.124 28.9056 110.162 28.9056 111.397C28.9056 112.94 28.9673 114.422 29.0908 115.966C29.2143 117.386 29.3378 118.807 29.4613 120.165C29.523 120.474 29.523 120.721 29.5848 121.029C29.0291 119.733 28.8438 118.251 28.4116 116.954C27.6089 114.608 26.6826 112.385 25.9417 110.038C25.3242 108.124 24.7067 106.148 23.904 104.296C23.1012 102.567 22.175 100.714 20.6931 99.4176C19.8286 98.6149 18.7171 98.1827 17.5439 98.1827C16.8029 98.1827 16.1237 98.4297 15.3827 98.6149C14.5182 98.8619 13.7773 98.7384 13.098 98.1827C10.6899 96.3302 10.0106 93.0576 8.21993 90.7729C6.92322 89.044 3.77406 86.08 1.48938 87.9942C0.254417 88.9822 -0.0543244 90.9581 0.00742375 92.4401C0.0691719 94.2925 0.871898 96.0215 1.85987 97.5652C2.90959 99.2324 4.2063 100.714 5.19427 102.382C5.75 103.37 5.81175 104.357 5.75 105.469C5.68825 106.519 5.56476 107.568 5.93525 108.618C7.04671 111.706 10.4429 111.273 13.098 111.335C14.9505 111.397 16.9264 111.644 18.7171 112.261C20.7548 112.94 22.0515 114.299 22.7925 116.275C23.3482 117.757 23.5952 119.362 24.5832 120.659C25.0772 121.215 25.6947 121.647 26.3739 121.956C27.4236 122.388 30.5728 122.635 30.5728 122.326C30.6345 121.338 31.1285 120.35 31.3755 119.424C31.9312 117.695 32.5487 116.028 33.2279 114.361Z" fill="#75BF7A"/>
<path d="M47.8623 113.743C47.6153 111.952 47.6153 110.038 46.8126 108.371C46.7508 108.247 46.5656 108.247 46.5038 108.309C45.8863 108.618 45.8863 109.606 45.8246 110.223C45.7628 111.211 45.8246 112.199 45.7011 113.187C45.5159 114.916 45.0836 116.707 44.4661 118.312C43.7869 120.165 42.4902 121.214 40.6377 121.77C39.4645 122.141 38.2913 122.449 37.3033 123.252C36.4389 123.931 35.8214 124.919 35.3274 125.969C34.0924 128.748 33.475 131.835 32.9192 134.861C32.5487 136.837 32.24 138.874 31.746 140.85C31.252 142.826 30.758 144.802 30.4493 146.84C30.3876 146.963 30.3258 147.025 30.3258 147.149C30.2023 147.457 30.6963 147.643 30.8198 147.334C32.734 144.37 35.0804 141.715 38.2913 140.109C39.7115 139.368 41.6257 139.245 42.8607 138.072C43.7869 137.207 43.9104 135.849 43.7869 134.676C43.6017 133.132 42.8607 131.835 42.058 130.477C41.6257 129.736 41.1317 128.933 41.317 128.069C41.5022 127.204 42.1814 126.587 42.8607 126.154C44.1574 125.352 45.7628 124.981 46.8126 123.746C47.8005 122.635 48.3563 121.276 48.4798 119.794C48.5415 117.818 48.171 115.719 47.8623 113.743Z" fill="#75BF7A"/>
<path d="M21.743 123.931C20.0758 121.77 17.9764 119.856 15.6917 118.312C14.4568 117.509 11.5546 115.904 10.9989 118.312C10.6284 119.732 12.0486 121.091 12.9131 122.017C14.2715 123.314 15.877 124.487 16.9884 126.03C15.5682 126.463 14.0863 126.586 12.8513 127.574C11.3694 128.747 10.7519 130.97 12.1721 132.39C12.8513 133.07 13.8393 133.502 14.7038 133.934C15.877 134.49 16.9884 134.984 18.1617 135.478C20.6933 136.528 23.2868 137.639 25.4479 139.368C27.6709 141.159 29.7086 144.123 29.8938 147.025C29.8938 147.272 29.8321 147.025 29.9556 146.901C30.0173 146.963 30.326 146.84 30.326 146.654C30.2643 142.394 29.5233 138.318 27.7326 134.366C26.1889 130.785 24.1512 127.08 21.743 123.931Z" fill="#75BF7A"/>
<path d="M15.8768 84.1036C16.803 86.0178 17.791 87.932 18.8407 89.8462C19.8286 91.6369 20.8166 93.4894 21.5576 95.4036C22.4838 97.8117 23.41 100.158 24.398 102.505C25.386 104.975 26.3122 107.506 27.0532 110.038C28.4734 115.039 29.5231 120.165 30.0171 125.351C30.2641 128.007 30.3876 130.6 30.3258 133.255C30.2641 135.293 30.0171 137.392 29.8318 139.43C29.6466 141.591 29.4614 143.752 29.6466 145.852C29.7701 147.642 30.0788 149.804 31.499 151.039C31.746 151.286 32.1783 150.977 31.993 150.668C30.3258 147.272 30.4493 143.567 30.7581 139.924C30.9433 137.886 31.1903 135.849 31.2521 133.811C31.3138 131.217 31.252 128.624 31.0051 126.031C30.5111 120.967 29.5231 115.966 28.2264 111.026C27.5472 108.494 26.7444 106.024 25.7565 103.616C24.7685 101.208 23.657 98.7997 22.7308 96.3915C21.0636 91.9457 18.4702 88.0555 16.1855 83.9184C16.062 83.6714 15.7533 83.8566 15.8768 84.1036Z" fill="#263238"/>
<path d="M30.1406 120.288C30.3876 117.078 30.6964 113.99 31.8078 110.903C32.3018 109.483 32.9193 108.062 33.4133 106.642C33.8455 105.469 34.4012 103.802 34.0925 102.567C34.0308 102.443 33.8455 102.443 33.7838 102.567C33.5985 103.308 33.5985 104.11 33.475 104.851C33.3515 105.592 33.1045 106.272 32.9193 106.951C32.4253 108.433 31.8078 109.853 31.2521 111.335C30.2024 114.175 29.6466 117.325 29.8936 120.35C29.8936 120.412 30.0789 120.412 30.1406 120.288Z" fill="#263238"/>
<path d="M11.4305 101.763C12.7272 104.851 16.5556 105.036 19.3343 105.715C21.3102 106.209 22.7922 107.568 23.8419 109.297C25.0151 111.211 25.8178 113.434 26.4353 115.533H26.4971C25.6944 111.828 24.5829 107.383 20.7545 105.654C17.6671 104.295 13.6535 104.974 11.6775 101.64C11.6775 101.455 11.3688 101.578 11.4305 101.763Z" fill="#263238"/>
<path d="M28.1028 119.794C28.2263 119.979 28.4116 120.226 28.5351 120.411C28.5968 120.535 28.7203 120.597 28.7821 120.658C28.9056 120.72 29.0291 120.844 29.1526 120.844C29.2143 120.844 29.276 120.782 29.2143 120.72C29.1526 120.597 29.0291 120.535 28.9673 120.473C28.9056 120.411 28.7821 120.288 28.7203 120.226C28.5351 120.041 28.3498 119.856 28.2263 119.67C28.1028 119.732 28.0411 119.732 28.1028 119.794Z" fill="#263238"/>
<path d="M20.0756 129.612C22.2986 131.403 24.3363 133.564 25.9417 135.911C26.7444 137.022 27.4237 138.195 28.1029 139.43C28.7821 140.727 29.2761 142.147 29.8318 143.506C29.8936 143.629 30.0788 143.629 30.0788 143.506C29.7701 140.603 27.9176 138.133 26.4357 135.664C25.6947 134.429 24.7067 133.379 23.7188 132.329C22.6691 131.218 21.5576 130.23 20.3226 129.365C20.1374 129.242 19.9521 129.489 20.0756 129.612Z" fill="#263238"/>
<path d="M37.6739 126.154C36.6242 126.771 36.5625 128.439 36.5625 129.488C36.5007 131.526 37.0565 133.502 36.1302 135.416C35.3275 137.207 34.0308 138.689 32.9811 140.294C31.9931 141.838 31.0669 143.814 31.0669 145.666C31.0669 145.79 31.2521 145.852 31.2521 145.728C31.6226 144.864 31.8079 143.937 32.0549 143.073C32.3636 142.085 32.7958 141.159 33.3516 140.294C34.3395 138.75 35.5745 137.392 36.3772 135.725C37.2417 133.996 37.1182 132.267 37.0565 130.414C36.9947 129.241 36.8712 127.265 37.8592 126.401C38.0444 126.339 37.8592 126.092 37.6739 126.154Z" fill="#263238"/>
<path d="M30.573 145.913C26.3124 145.851 18.1616 145.79 18.1616 145.79L20.1993 160.794C20.6315 164.19 23.5337 166.66 26.9299 166.66H30.4495H30.82H34.3396C37.7358 166.66 40.6379 164.129 41.0702 160.794L43.1079 145.79C42.9844 145.851 34.8336 145.851 30.573 145.913Z" fill="white"/>
<path d="M237.491 118.435L213.038 166.784L141.843 167.278L163.825 117.694L237.491 118.435Z" fill="#263238"/>
<path d="M94.606 166.97V163.08H140.67L161.85 116.583H235.577L237.429 118.374H165.493L143.449 166.908C143.449 166.97 94.606 166.846 94.606 166.97Z" fill="#263238"/>
<path d="M200.504 145.111C199.701 147.519 195.317 149.371 190.748 149.248C186.178 149.124 183.091 147.087 183.894 144.679C184.696 142.27 189.08 140.418 193.65 140.541C198.281 140.665 201.307 142.703 200.504 145.111Z" fill="#263238"/>
<path d="M143.448 167.278C143.387 167.278 143.387 167.278 143.325 167.278C143.14 167.217 143.078 167.032 143.201 166.846L165.307 118.127H237.491C237.676 118.127 237.8 118.25 237.8 118.436C237.8 118.621 237.676 118.744 237.491 118.744H165.678L143.695 167.093C143.695 167.217 143.572 167.278 143.448 167.278Z" fill="white"/>
<path d="M91.3948 170.675H90.9008H6.67627V174.133H90.9008H91.3948H243.295V170.675H91.3948Z" fill="white"/>
<path d="M95.0993 166.97H2.60059V171.539H95.0993V166.97Z" fill="#263238"/>
<path d="M247 166.97H94.606V171.539H247V166.97Z" fill="#263238"/>
<path d="M70.0298 68.42H40.082C38.2295 68.42 36.7476 66.938 36.7476 65.0856V50.1425C36.7476 48.2901 38.2295 46.8081 40.082 46.8081H69.9681C71.8205 46.8081 73.3025 48.2901 73.3025 50.1425V65.0856C73.3642 66.938 71.8823 68.42 70.0298 68.42Z" fill="white"/>
<path d="M81.8856 57.6135L70.6475 52.8589V62.3681L81.8856 57.6135Z" fill="white"/>
<path d="M47.9854 59.652C49.1108 59.652 50.0231 58.7397 50.0231 57.6144C50.0231 56.489 49.1108 55.5767 47.9854 55.5767C46.8601 55.5767 45.9478 56.489 45.9478 57.6144C45.9478 58.7397 46.8601 59.652 47.9854 59.652Z" fill="#263238"/>
<path d="M55.087 59.652C56.2124 59.652 57.1247 58.7397 57.1247 57.6144C57.1247 56.489 56.2124 55.5767 55.087 55.5767C53.9616 55.5767 53.0493 56.489 53.0493 57.6144C53.0493 58.7397 53.9616 59.652 55.087 59.652Z" fill="#263238"/>
<path d="M62.1261 59.652C63.2514 59.652 64.1638 58.7397 64.1638 57.6144C64.1638 56.489 63.2514 55.5767 62.1261 55.5767C61.0007 55.5767 60.0884 56.489 60.0884 57.6144C60.0884 58.7397 61.0007 59.652 62.1261 59.652Z" fill="#263238"/>
<path d="M222.239 0.867676H153.205C148.759 0.867676 145.177 4.44907 145.177 8.89494V41.6215C145.177 46.0673 148.759 49.6487 153.205 49.6487H159.379C159.565 52.6126 159.132 57.0585 156.662 62.6776C164.628 58.9727 169.259 53.4771 171.605 49.6487H222.239C226.685 49.6487 230.266 46.0673 230.266 41.6215V8.89494C230.266 4.44907 226.685 0.867676 222.239 0.867676Z" fill="#75BF7A"/>
<path d="M192.785 16.4896H158.577C157.65 16.4896 156.848 15.7487 156.848 14.7607C156.848 13.8345 157.589 13.0317 158.577 13.0317H192.785C193.711 13.0317 194.514 13.7727 194.514 14.7607C194.514 15.6869 193.711 16.4896 192.785 16.4896Z" fill="white"/>
<path d="M217.361 26.4315H157.897C157.342 26.4315 156.848 25.9375 156.848 25.3817C156.848 24.826 157.342 24.332 157.897 24.332H217.361C217.917 24.332 218.411 24.826 218.411 25.3817C218.411 25.9375 217.917 26.4315 217.361 26.4315Z" fill="#75BF7A"/>
<path d="M217.361 32.1732H157.897C157.342 32.1732 156.848 31.6792 156.848 31.1235C156.848 30.5677 157.342 30.0737 157.897 30.0737H217.361C217.917 30.0737 218.411 30.5677 218.411 31.1235C218.411 31.7409 217.917 32.1732 217.361 32.1732Z" fill="#75BF7A"/>
<path d="M204.394 38.348H157.897C157.342 38.348 156.848 37.854 156.848 37.2983C156.848 36.7425 157.342 36.2485 157.897 36.2485H204.394C204.949 36.2485 205.443 36.7425 205.443 37.2983C205.443 37.9157 204.949 38.348 204.394 38.348Z" fill="#75BF7A"/>
<path d="M216.867 16.4896H200.503C199.577 16.4896 198.774 15.7487 198.774 14.7607C198.774 13.8345 199.515 13.0317 200.503 13.0317H216.867C217.793 13.0317 218.596 13.7727 218.596 14.7607C218.596 15.6869 217.793 16.4896 216.867 16.4896Z" fill="white"/>
<path d="M175.68 91.8221H157.156C156.477 91.8221 155.921 91.2664 155.921 90.5872V77.9288C155.921 77.2496 156.477 76.6938 157.156 76.6938H175.68C176.36 76.6938 176.915 77.2496 176.915 77.9288V90.5872C176.915 91.2664 176.421 91.8221 175.68 91.8221Z" fill="white"/>
<path d="M166.542 86.5117C166.418 86.5117 166.357 86.45 166.233 86.3882L156.168 78.0522C155.983 77.867 155.921 77.62 156.106 77.373C156.292 77.1878 156.539 77.126 156.786 77.3113L166.604 85.4003L176.175 77.126C176.36 76.9408 176.669 77.0025 176.854 77.1878C177.039 77.373 176.977 77.6817 176.792 77.867L166.974 86.45C166.789 86.45 166.665 86.5117 166.542 86.5117Z" fill="#263238"/>
<path d="M156.477 91.4515C156.353 91.4515 156.23 91.3898 156.168 91.328C155.983 91.1428 155.983 90.8341 156.168 90.6488L163.208 83.239C163.393 83.0538 163.702 83.0538 163.887 83.239C164.072 83.4243 164.072 83.733 163.887 83.9183L156.847 91.328C156.724 91.3898 156.6 91.4515 156.477 91.4515Z" fill="#263238"/>
<path d="M176.422 91.2043C176.298 91.2043 176.175 91.1426 176.113 91.0808L169.012 83.9798C168.827 83.7945 168.827 83.4858 169.012 83.3006C169.197 83.1153 169.506 83.1153 169.691 83.3006L176.73 90.3399C176.916 90.5251 176.916 90.8338 176.73 91.0191C176.607 91.1426 176.545 91.2043 176.422 91.2043Z" fill="#263238"/>
<path d="M177.904 82.375C181.314 82.375 184.079 79.6105 184.079 76.2002C184.079 72.7899 181.314 70.0254 177.904 70.0254C174.494 70.0254 171.729 72.7899 171.729 76.2002C171.729 79.6105 174.494 82.375 177.904 82.375Z" fill="#FF5F42"/>
<path d="M176.175 76.1999C176.298 76.1999 176.483 76.3234 176.607 76.4469C176.73 76.5704 176.854 76.6939 176.916 76.8791C176.977 77.0643 177.039 77.2496 177.039 77.4348C177.039 77.6818 176.977 77.9288 176.854 78.1141C176.73 78.2993 176.545 78.4846 176.298 78.608C176.051 78.7315 175.804 78.7933 175.495 78.7933C175.187 78.7933 174.94 78.7315 174.693 78.608C174.446 78.4846 174.26 78.2993 174.137 78.1141C174.013 77.9288 173.952 77.6818 173.952 77.4348C173.952 77.1878 174.013 77.0026 174.075 76.8791C174.137 76.7556 174.26 76.5704 174.384 76.4469C174.507 76.3234 174.693 76.2616 174.816 76.1381C174.693 76.0764 174.569 75.9529 174.446 75.8911C174.322 75.7676 174.26 75.6441 174.137 75.4589C174.075 75.2736 174.013 75.1501 174.013 74.9649C174.013 74.7179 174.075 74.4709 174.199 74.2857C174.322 74.1004 174.507 73.9152 174.693 73.7917C174.94 73.6682 175.125 73.6064 175.434 73.6064C175.742 73.6064 175.928 73.6682 176.175 73.7917C176.422 73.9152 176.545 74.1004 176.669 74.2857C176.792 74.4709 176.854 74.7179 176.854 74.9649C176.854 75.1501 176.792 75.3354 176.73 75.4589C176.669 75.6441 176.545 75.7676 176.422 75.8911C176.422 76.0146 176.298 76.1381 176.175 76.1999ZM175.557 78.5463C175.928 78.5463 176.236 78.4228 176.483 78.2376C176.73 78.0523 176.854 77.7436 176.854 77.4348C176.854 77.1878 176.792 77.0026 176.669 76.8791C176.545 76.6939 176.422 76.5704 176.236 76.5086C176.051 76.3851 175.866 76.3851 175.619 76.3851C175.372 76.3851 175.187 76.4469 175.001 76.5086C174.816 76.6321 174.693 76.7556 174.569 76.8791C174.446 77.0643 174.384 77.2496 174.384 77.4348C174.384 77.7436 174.507 77.9906 174.693 78.2376C174.878 78.4845 175.187 78.5463 175.557 78.5463ZM174.446 74.9649C174.446 75.2119 174.507 75.3971 174.631 75.5206C174.754 75.7059 174.878 75.8294 175.063 75.8911C175.248 75.9529 175.434 76.0146 175.619 76.0146C175.804 76.0146 175.989 75.9529 176.175 75.8911C176.36 75.8294 176.483 75.6441 176.607 75.5206C176.73 75.3354 176.792 75.1501 176.792 74.9649C176.792 74.6562 176.669 74.4092 176.483 74.1622C176.298 73.9152 175.989 73.8534 175.681 73.8534C175.372 73.8534 175.063 73.9769 174.878 74.1622C174.693 74.3474 174.446 74.6562 174.446 74.9649Z" fill="white"/>
<path d="M179.262 78.7935C179.077 78.7935 178.83 78.7318 178.644 78.67C178.459 78.6083 178.274 78.4848 178.089 78.3613L178.027 78.2995V78.2378C178.027 78.176 178.027 78.176 178.089 78.1143C178.089 78.0525 178.15 78.0525 178.212 78.0525C178.274 78.0525 178.274 78.0525 178.336 78.1143C178.459 78.2378 178.644 78.2995 178.83 78.3613C179.015 78.423 179.2 78.423 179.324 78.423C179.632 78.423 179.879 78.3613 180.126 78.2378C180.373 78.1143 180.559 77.929 180.682 77.7438C180.806 77.4968 180.867 77.2498 180.867 77.0028C180.867 76.7558 180.806 76.5088 180.682 76.2618C180.559 76.0766 180.373 75.8913 180.188 75.7678C179.941 75.6444 179.694 75.5826 179.385 75.5826C179.2 75.5826 179.015 75.5826 178.891 75.6444C178.706 75.7061 178.583 75.7679 178.521 75.8296C178.459 75.8914 178.336 75.8913 178.274 75.8913H178.212L178.15 75.8296C178.15 75.8296 178.15 75.7679 178.15 75.7061L178.521 73.6684C178.521 73.6684 178.521 73.6067 178.583 73.6067C178.644 73.6067 178.644 73.5449 178.706 73.5449H180.991C181.053 73.5449 181.053 73.5449 181.114 73.6067C181.176 73.6684 181.176 73.6684 181.176 73.7302C181.176 73.7919 181.176 73.7919 181.114 73.8537C181.053 73.9154 181.053 73.9154 180.991 73.9154H178.768L178.83 73.8537L178.459 75.7061L178.336 75.6444C178.397 75.5826 178.521 75.5209 178.644 75.5209C178.768 75.5209 178.891 75.3974 179.077 75.3974C179.262 75.3356 179.385 75.3356 179.571 75.3356C179.879 75.3356 180.188 75.3974 180.435 75.5209C180.682 75.6444 180.867 75.8296 181.053 76.0766C181.176 76.3236 181.299 76.6323 181.299 76.9411C181.299 77.3116 181.238 77.6203 181.053 77.8673C180.929 78.1143 180.682 78.3613 180.435 78.4848C179.941 78.7318 179.632 78.7935 179.262 78.7935Z" fill="white"/>
<path d="M240.147 73.9156H203.962C202.604 73.9156 201.492 72.8041 201.492 71.4457V65.7648C201.492 64.4064 202.604 63.2949 203.962 63.2949H240.147C241.505 63.2949 242.616 64.4064 242.616 65.7648V71.4457C242.616 72.8041 241.505 73.9156 240.147 73.9156Z" fill="#263238"/>
<path d="M206.555 71.384C206.37 71.384 206.246 71.3223 206.184 71.1988C206.061 71.0753 206.061 70.9518 206.061 70.7666L206.246 69.4081C206.246 69.3463 206.246 69.3463 206.246 69.3463H206.184L205.073 70.1491C204.95 70.2726 204.764 70.2726 204.641 70.2726C204.517 70.2726 204.394 70.1491 204.27 70.0256C204.147 69.8403 204.147 69.6551 204.209 69.5316C204.27 69.4081 204.394 69.2846 204.517 69.2228L205.814 68.6671C205.876 68.6671 205.876 68.6671 205.876 68.6054C205.876 68.6054 205.876 68.5436 205.814 68.5436L204.517 67.9879C204.332 67.9261 204.27 67.8026 204.209 67.6791C204.147 67.5556 204.209 67.3704 204.27 67.2469C204.332 67.1234 204.456 66.9999 204.641 66.9999C204.764 66.9999 204.95 66.9999 205.073 67.1234L206.184 67.9879C206.246 67.9879 206.246 67.9879 206.246 67.9879V67.9261L206.061 66.5677C206.061 66.3824 206.123 66.2589 206.184 66.1354C206.308 66.0119 206.431 65.9502 206.617 65.9502C206.802 65.9502 206.925 66.0119 206.987 66.1354C207.111 66.2589 207.111 66.3824 207.111 66.5677L206.925 67.9261C206.925 67.9879 206.925 67.9879 206.925 67.9879H206.987L208.099 67.1852C208.222 67.0617 208.407 67.0617 208.531 67.0617C208.716 67.0617 208.778 67.1852 208.901 67.3087C209.025 67.4939 209.025 67.6791 208.963 67.8026C208.901 67.9261 208.778 68.0496 208.654 68.1114L207.358 68.6671C207.296 68.6671 207.296 68.6671 207.296 68.7289C207.296 68.7289 207.296 68.7906 207.358 68.7906L208.654 69.3463C208.84 69.4081 208.901 69.5316 208.963 69.6551C209.025 69.7786 209.025 69.9638 208.901 70.0873C208.84 70.2108 208.716 70.3343 208.531 70.3343C208.346 70.3343 208.222 70.3343 208.099 70.2108L206.987 69.3463C206.925 69.3463 206.925 69.3463 206.925 69.3463V69.4081L207.111 70.7666C207.111 70.9518 207.111 71.0753 206.987 71.1988C206.864 71.3223 206.74 71.384 206.555 71.384Z" fill="white"/>
<path d="M214.027 71.384C213.841 71.384 213.718 71.3223 213.656 71.1988C213.533 71.0753 213.533 70.9518 213.533 70.7666L213.718 69.4081C213.718 69.3463 213.718 69.3463 213.718 69.3463H213.656L212.545 70.1491C212.421 70.2726 212.236 70.2726 212.112 70.2726C211.989 70.2726 211.865 70.1491 211.742 70.0256C211.618 69.8403 211.618 69.6551 211.68 69.5316C211.742 69.4081 211.865 69.2846 211.989 69.2228L213.286 68.6671C213.347 68.6671 213.347 68.6671 213.347 68.6054C213.347 68.6054 213.347 68.5436 213.286 68.5436L211.989 67.9879C211.804 67.9261 211.742 67.8026 211.68 67.6791C211.618 67.5556 211.68 67.3704 211.742 67.2469C211.865 67.1234 211.927 66.9999 212.112 66.9999C212.236 66.9999 212.421 66.9999 212.545 67.1234L213.656 67.9879C213.718 67.9879 213.718 67.9879 213.718 67.9879V67.9261L213.533 66.5677C213.533 66.3824 213.594 66.2589 213.656 66.1354C213.78 66.0119 213.903 65.9502 214.088 65.9502C214.274 65.9502 214.397 66.0119 214.459 66.1354C214.582 66.2589 214.582 66.3824 214.582 66.5677L214.397 67.9261C214.397 67.9879 214.397 67.9879 214.397 67.9879H214.459L215.57 67.1852C215.694 67.0617 215.879 67.0617 216.003 67.0617C216.188 67.0617 216.25 67.1852 216.373 67.3087C216.497 67.4939 216.497 67.6791 216.435 67.8026C216.373 67.9261 216.25 68.0496 216.126 68.1114L214.829 68.6671C214.768 68.6671 214.768 68.6671 214.768 68.7289C214.768 68.7289 214.768 68.7906 214.829 68.7906L216.126 69.3463C216.311 69.4081 216.373 69.5316 216.435 69.6551C216.497 69.7786 216.497 69.9638 216.373 70.0873C216.311 70.2108 216.188 70.3343 216.003 70.3343C215.817 70.3343 215.694 70.3343 215.57 70.2108L214.459 69.3463C214.397 69.3463 214.397 69.3463 214.397 69.3463V69.4081L214.582 70.7666C214.582 70.9518 214.582 71.0753 214.459 71.1988C214.335 71.3223 214.212 71.384 214.027 71.384Z" fill="white"/>
<path d="M221.498 71.384C221.313 71.384 221.189 71.3223 221.127 71.1988C221.004 71.0753 221.004 70.9518 221.004 70.7666L221.189 69.4081C221.189 69.3463 221.189 69.3463 221.189 69.3463H221.127L220.016 70.1491C219.892 70.2726 219.707 70.2726 219.584 70.2726C219.46 70.2726 219.337 70.1491 219.213 70.0256C219.09 69.8403 219.09 69.6551 219.151 69.5316C219.213 69.4081 219.337 69.2846 219.46 69.2228L220.757 68.6671C220.819 68.6671 220.819 68.6671 220.819 68.6054C220.819 68.6054 220.819 68.5436 220.757 68.5436L219.46 67.9879C219.275 67.9261 219.213 67.8026 219.151 67.6791C219.09 67.5556 219.151 67.3704 219.213 67.2469C219.275 67.1234 219.398 66.9999 219.584 66.9999C219.707 66.9999 219.892 66.9999 220.016 67.1234L221.127 67.9879C221.189 67.9879 221.189 67.9879 221.189 67.9879V67.9261L221.004 66.5677C221.004 66.3824 221.066 66.2589 221.127 66.1354C221.251 66.0119 221.374 65.9502 221.56 65.9502C221.745 65.9502 221.868 66.0119 221.93 66.1354C222.054 66.2589 222.054 66.3824 222.054 66.5677L221.868 67.9261C221.868 67.9879 221.868 67.9879 221.868 67.9879H221.93L223.042 67.1852C223.165 67.0617 223.35 67.0617 223.474 67.0617C223.659 67.0617 223.721 67.1852 223.844 67.3087C223.968 67.4939 223.968 67.6791 223.906 67.8026C223.844 67.9261 223.721 68.0496 223.597 68.1114L222.301 68.6671C222.239 68.6671 222.239 68.6671 222.239 68.7289C222.239 68.7289 222.239 68.7906 222.301 68.7906L223.597 69.3463C223.783 69.4081 223.844 69.5316 223.906 69.6551C223.968 69.7786 223.968 69.9638 223.844 70.0873C223.783 70.2108 223.659 70.3343 223.474 70.3343C223.289 70.3343 223.165 70.3343 223.042 70.2108L221.93 69.3463C221.868 69.3463 221.868 69.3463 221.868 69.3463V69.4081L222.054 70.7666C222.054 70.9518 222.054 71.0753 221.93 71.1988C221.868 71.3223 221.683 71.384 221.498 71.384Z" fill="white"/>
<path d="M229.032 71.384C228.846 71.384 228.723 71.3223 228.661 71.1988C228.538 71.0753 228.538 70.9518 228.538 70.7666L228.723 69.4081C228.723 69.3463 228.723 69.3463 228.723 69.3463H228.661L227.55 70.1491C227.426 70.2726 227.241 70.2726 227.117 70.2726C226.994 70.2726 226.87 70.1491 226.747 70.0256C226.623 69.8403 226.623 69.6551 226.685 69.5316C226.747 69.4081 226.87 69.2846 226.994 69.2228L228.291 68.6671C228.352 68.6671 228.352 68.6671 228.352 68.6054C228.352 68.6054 228.352 68.5436 228.291 68.5436L226.994 67.9879C226.809 67.9261 226.747 67.8026 226.685 67.6791C226.623 67.5556 226.685 67.3704 226.747 67.2469C226.87 67.1234 226.932 66.9999 227.117 66.9999C227.241 66.9999 227.426 66.9999 227.55 67.1234L228.661 67.9879C228.723 67.9879 228.723 67.9879 228.723 67.9879V67.9261L228.538 66.5677C228.538 66.3824 228.599 66.2589 228.661 66.1354C228.785 66.0119 228.908 65.9502 229.093 65.9502C229.279 65.9502 229.402 66.0119 229.464 66.1354C229.587 66.2589 229.587 66.3824 229.587 66.5677L229.402 67.9261C229.402 67.9879 229.402 67.9879 229.402 67.9879H229.464L230.575 67.1852C230.699 67.0617 230.884 67.0617 231.007 67.0617C231.193 67.0617 231.254 67.1852 231.378 67.3087C231.501 67.4939 231.501 67.6791 231.44 67.8026C231.378 67.9261 231.254 68.0496 231.131 68.1114L229.834 68.6671C229.773 68.6671 229.772 68.6671 229.772 68.7289C229.772 68.7289 229.773 68.7906 229.834 68.7906L231.131 69.3463C231.316 69.4081 231.378 69.5316 231.44 69.6551C231.501 69.7786 231.501 69.9638 231.378 70.0873C231.316 70.2108 231.193 70.3343 231.007 70.3343C230.822 70.3343 230.699 70.3343 230.575 70.2108L229.464 69.3463C229.402 69.3463 229.402 69.3463 229.402 69.3463V69.4081L229.587 70.7666C229.587 70.9518 229.587 71.0753 229.464 71.1988C229.34 71.3223 229.217 71.384 229.032 71.384Z" fill="white"/>
<path d="M236.503 71.384C236.317 71.384 236.194 71.3223 236.132 71.1988C236.009 71.0753 236.009 70.9518 236.009 70.7666L236.194 69.4081C236.194 69.3463 236.194 69.3463 236.194 69.3463H236.132L235.021 70.1491C234.897 70.2726 234.712 70.2726 234.589 70.2726C234.465 70.2726 234.342 70.1491 234.218 70.0256C234.095 69.8403 234.095 69.6551 234.156 69.5316C234.218 69.4081 234.342 69.2846 234.465 69.2228L235.762 68.6671C235.823 68.6671 235.823 68.6671 235.823 68.6054C235.823 68.6054 235.823 68.5436 235.762 68.5436L234.465 67.9879C234.28 67.9261 234.218 67.8026 234.156 67.6791C234.095 67.5556 234.156 67.3704 234.218 67.2469C234.28 67.1234 234.403 66.9999 234.589 66.9999C234.712 66.9999 234.897 66.9999 235.021 67.1234L236.132 67.9879C236.194 67.9879 236.194 67.9879 236.194 67.9879V67.9261L236.009 66.5677C236.009 66.3824 236.07 66.2589 236.132 66.1354C236.256 66.0119 236.379 65.9502 236.564 65.9502C236.75 65.9502 236.873 66.0119 236.935 66.1354C237.058 66.2589 237.058 66.3824 237.058 66.5677L236.873 67.9261C236.873 67.9879 236.873 67.9879 236.873 67.9879H236.935L238.046 67.1852C238.17 67.0617 238.355 67.0617 238.479 67.0617C238.664 67.0617 238.726 67.1852 238.849 67.3087C238.973 67.4939 238.973 67.6791 238.911 67.8026C238.849 67.9261 238.726 68.0496 238.602 68.1114L237.305 68.6671C237.244 68.6671 237.244 68.6671 237.244 68.7289C237.244 68.7289 237.244 68.7906 237.305 68.7906L238.602 69.3463C238.787 69.4081 238.849 69.5316 238.911 69.6551C238.973 69.7786 238.973 69.9638 238.849 70.0873C238.787 70.2108 238.664 70.3343 238.479 70.3343C238.293 70.3343 238.17 70.3343 238.046 70.2108L236.935 69.3463C236.873 69.3463 236.873 69.3463 236.873 69.3463V69.4081L237.058 70.7666C237.058 70.9518 237.058 71.0753 236.935 71.1988C236.811 71.3223 236.688 71.384 236.503 71.384Z" fill="#75BF7A"/>
</svg>
