<svg width="248" height="228" viewBox="0 0 248 228" fill="none" xmlns="http://www.w3.org/2000/svg">
<path d="M248 218.995C248 222.978 192.463 226.209 124 226.209C55.537 226.209 0 222.978 0 218.995C0 215.012 55.537 211.78 124 211.78C192.463 211.78 248 215.012 248 218.995Z" fill="#75BF7A"/>
<path d="M121.219 40.5103H95.7429H70.3417C-49.9007 154.741 32.8411 218.995 95.8181 218.995C158.72 218.995 241.462 154.741 121.219 40.5103Z" fill="#E9E2D0"/>
<path d="M95.7429 218.995C57.3405 218.995 11.6484 195.097 9.01808 150.607C7.36475 122.125 23.372 85.1503 70.2666 40.5103H121.144C241.462 154.741 158.72 218.995 95.7429 218.995Z" fill="#E9E2D0"/>
<path d="M29.5345 152.787C22.846 152.787 15.9321 152.035 9.09328 150.607C7.43995 122.125 23.4472 85.1503 70.3418 40.5103H106.414C140.684 113.031 78.9842 152.787 29.5345 152.787Z" fill="#F2EADA"/>
<path d="M95.743 218.995C68.5382 218.995 37.5758 206.971 20.9673 184.05C37.8012 196.525 59.8206 203.063 79.8109 203.063C139.782 203.063 217.639 144.745 121.069 40.5103H121.219C241.462 154.741 158.72 218.995 95.743 218.995Z" fill="#D8CEB6"/>
<path d="M66.1335 40.5106L53.959 0.530037C62.902 -2.70148 69.0644 9.92398 77.3311 9.32276C85.5978 8.72155 83.5687 3.08519 89.205 1.65731C99.125 -0.897841 101.53 11.9531 110.323 9.92398C115.132 8.87186 118.74 -1.5742 137.603 2.33367L125.729 40.5106H66.1335Z" fill="#E9E2D0"/>
<path d="M110.173 49.6044C121.445 69.6698 127.307 94.545 125.503 121.524C125.353 123.403 127.232 124.23 129.712 123.253C132.192 122.276 134.221 119.871 134.221 117.917C134.672 90.7874 127.533 65.9874 115.283 46.2977C114.381 44.945 112.577 44.5692 111.225 45.471C109.872 46.3729 109.421 48.1765 110.173 49.6044Z" fill="#FFBE2E"/>
<path d="M126.33 69.1433C120.017 59.2985 112.803 52.8354 112.803 52.8354C116.26 55.2403 120.468 58.7724 123.775 62.9809C123.925 63.2064 124.075 63.4318 124.226 63.6573C124.902 65.3857 125.654 67.2645 126.33 69.1433Z" fill="#E5A320"/>
<path d="M107.016 49.1532C117.537 55.5411 128.96 62.1544 136.776 92.5156C137.227 94.3944 139.331 94.5447 141.285 92.7411C143.239 91.0126 144.517 87.9314 143.765 86.2029C131.365 57.8708 120.769 52.1593 110.699 44.3435C109.421 43.3665 107.542 43.6671 106.565 44.9447C105.588 46.2223 105.739 48.0259 107.016 49.1532Z" fill="#FFBE2E"/>
<path d="M111.675 52.2344H120.844L121.445 52.7604H111.901L111.675 52.2344Z" fill="#E5A320"/>
<path d="M128.96 41.5624C128.434 40.886 127.608 40.5103 126.706 40.5103H95.7434H64.781C63.9543 40.5103 63.1277 40.886 62.5265 41.5624C60.9483 43.4412 62.301 46.3721 64.781 46.3721H95.7434H126.706C129.186 46.3721 130.539 43.5163 128.96 41.5624Z" fill="#FFBE2E"/>
<path d="M129.712 52.2344H61.7748C59.2948 52.2344 57.942 49.3035 59.5954 47.4247C60.1214 46.7483 60.9481 46.3726 61.7748 46.3726H129.712C130.538 46.3726 131.365 46.7483 131.891 47.4247C133.62 49.3035 132.267 52.2344 129.712 52.2344Z" fill="#FFBE2E"/>
<path d="M126.706 46.3726C126.706 46.3726 111.224 47.4998 95.7432 47.4998C79.5105 47.4998 64.7808 46.3726 64.7808 46.3726H126.706Z" fill="#E5A320"/>
<path d="M114.155 128.137C110.022 125.281 105.513 122.952 100.478 121.148V104.389C102.657 104.915 104.611 105.892 106.339 107.32C108.068 108.748 109.721 110.251 111.299 111.754L120.092 103.112C118.439 101.533 116.861 100.181 115.433 98.9783C114.005 97.7759 112.577 96.7989 111.074 95.9722C109.571 95.1456 107.993 94.4692 106.264 93.9432C104.611 93.4922 102.582 93.0413 100.402 92.8159V86.0522H91.3842V92.891C88.9042 93.1916 86.4242 93.868 84.0194 94.845C81.6145 95.8219 79.5103 97.0995 77.6315 98.6025C75.7527 100.181 74.2497 102.06 73.1224 104.314C71.9951 106.493 71.3939 109.049 71.3939 111.829C71.3939 117.541 73.423 121.9 77.406 124.906C80.5624 127.31 85.2969 129.79 91.4594 132.195V150.758C88.8291 150.081 86.6497 148.954 84.846 147.451C83.0424 145.948 81.4642 144.069 80.1115 141.74L70.3418 150.081C73.1224 153.839 76.2036 156.695 79.5854 158.573C82.8921 160.527 86.8751 161.73 91.3842 162.256V173.604H100.402V162.256C106.339 161.655 110.999 160.076 114.456 157.371C118.589 154.064 120.844 149.405 121.069 143.243C121.069 142.867 121.069 142.491 121.069 142.115C121.144 136.103 118.815 131.444 114.155 128.137ZM100.478 135.652C102.281 136.554 103.709 137.306 104.761 137.982C107.316 139.41 108.594 141.289 108.594 143.468C108.594 144.746 108.368 145.798 107.918 146.624C107.467 147.451 106.865 148.203 106.114 148.804C105.362 149.405 104.461 149.856 103.484 150.232C102.507 150.607 101.455 150.833 100.478 151.058V135.652ZM89.0545 116.564C88.1527 116.113 87.4012 115.662 86.6497 115.061C85.8982 114.46 85.297 113.858 84.846 113.107C84.32 112.355 84.0945 111.529 84.0945 110.552C84.0945 109.575 84.32 108.673 84.7709 107.921C85.2218 107.17 85.823 106.569 86.4994 106.043C87.1757 105.516 88.0024 105.066 88.8291 104.84C89.7309 104.54 90.5576 104.314 91.4594 104.164V117.766C90.7079 117.39 89.8812 117.015 89.0545 116.564Z" fill="#263238"/>
<path opacity="0.15" d="M97.3964 220.724C87.777 220.724 77.7819 219.221 68.0122 216.29C65.6073 215.538 63.2025 214.712 60.7976 213.81C60.7976 213.81 60.7976 213.81 60.7225 213.81C60.1213 213.584 59.5952 213.359 58.994 213.134H58.9188C57.1904 212.382 55.4619 211.631 53.7334 210.879C53.7334 210.879 53.7334 210.879 53.6582 210.879C53.1322 210.654 52.6061 210.353 52.08 210.128C52.0049 210.128 51.9297 210.052 51.9297 210.052C51.4037 209.827 50.8776 209.526 50.4267 209.301C50.4267 209.301 50.3516 209.301 50.3516 209.226V206.971L50.8776 206.144L50.3516 205.168V192.091L50.8776 191.264L50.3516 190.438V177.361L50.8776 176.535L50.3516 175.708V162.632L50.8776 161.805L50.3516 160.978V147.902L51.9297 145.422H100.853L102.432 147.902V160.152H120.468V143.919H133.394V122.2H117.236V93.793H166.385C216.737 175.558 150.153 220.724 97.3964 220.724Z" fill="#231F20"/>
<path d="M222.899 93.8682H117.236V118.894H222.899V93.8682Z" fill="#75BF7A"/>
<path d="M184.722 93.8682H155.338V118.894H184.722V93.8682Z" fill="white"/>
<path d="M184.797 93.8682H181.416V118.894H184.797V93.8682Z" fill="#F3F9A2"/>
<path d="M158.72 93.8682H155.338V118.894H158.72V93.8682Z" fill="#F3F9A2"/>
<path d="M239.057 118.894H133.394V143.919H239.057V118.894Z" fill="#75BF7A"/>
<path d="M200.956 118.894H171.571V143.919H200.956V118.894Z" fill="white"/>
<path d="M200.956 118.894H197.574V143.919H200.956V118.894Z" fill="#F3F9A2"/>
<path d="M174.953 118.894H171.571V143.919H174.953V118.894Z" fill="#F3F9A2"/>
<path opacity="0.25" d="M133.422 121.535L239.085 121.535V118.83L133.422 118.83V121.535Z" fill="#231F20"/>
<path d="M226.206 143.919H120.543V168.944H226.206V143.919Z" fill="#75BF7A"/>
<path d="M188.029 143.919H158.645V168.944H188.029V143.919Z" fill="white"/>
<path d="M188.029 143.919H184.647V168.944H188.029V143.919Z" fill="#F3F9A2"/>
<path d="M162.027 143.919H158.645V168.944H162.027V143.919Z" fill="#F3F9A2"/>
<path opacity="0.25" d="M120.455 146.588H226.118V143.882H120.455V146.588Z" fill="#231F20"/>
<path d="M239.057 168.944H133.394V193.97H239.057V168.944Z" fill="#75BF7A"/>
<path d="M200.956 168.944H171.571V193.97H200.956V168.944Z" fill="white"/>
<path d="M200.956 168.944H197.574V193.97H200.956V168.944Z" fill="#F3F9A2"/>
<path d="M174.953 168.944H171.571V193.97H174.953V168.944Z" fill="#F3F9A2"/>
<path opacity="0.25" d="M133.429 171.64H239.092V168.935H133.429V171.64Z" fill="#231F20"/>
<path d="M235.901 193.97H130.238V218.995H235.901V193.97Z" fill="#75BF7A"/>
<path d="M197.724 193.97H168.339V218.995H197.724V193.97Z" fill="white"/>
<path d="M197.799 193.97H194.417V218.995H197.799V193.97Z" fill="#F3F9A2"/>
<path d="M171.721 193.97H168.339V218.995H171.721V193.97Z" fill="#F3F9A2"/>
<path opacity="0.25" d="M130.246 196.692H235.909V193.986H130.246V196.692Z" fill="#231F20"/>
<path opacity="0.15" d="M135.648 161.73C135.573 161.73 135.423 161.73 135.348 161.73V161.204L133.319 158.048H120.543V218.996H133.319L133.394 218.921C134.145 218.996 134.972 218.996 135.724 218.996C151.956 218.996 165.108 206.145 165.108 190.363C165.108 174.581 151.881 161.73 135.648 161.73Z" fill="#231F20"/>
<path d="M132.943 161.503H84.1694V173.603H132.943V161.503Z" fill="#FFB229"/>
<path d="M132.116 160.151H84.9961L84.1694 161.504H132.943L132.116 160.151Z" fill="#FFC550"/>
<path d="M84.9961 174.881H132.116L132.943 173.603H84.1694L84.9961 174.881Z" fill="#EA9A0C"/>
<path d="M102.732 161.503H98.9741V173.603H102.732V161.503Z" fill="#FFD694"/>
<path d="M104.987 161.503H103.634V173.603H104.987V161.503Z" fill="#FFD694"/>
<path opacity="0.05" d="M122.422 174.881V160.151H132.116L132.943 161.504V173.603L132.116 174.881H122.422Z" fill="#231F20"/>
<path opacity="0.1" d="M94.7658 160.151V174.881H84.9961L84.1694 173.603V161.504L84.9961 160.151H94.7658Z" fill="white"/>
<path d="M132.943 176.158H84.1694V188.258H132.943V176.158Z" fill="#FFB229"/>
<path d="M132.116 174.881H84.9961L84.1694 176.159H132.943L132.116 174.881Z" fill="#FFC550"/>
<path d="M84.9961 189.611H132.116L132.943 188.333H84.1694L84.9961 189.611Z" fill="#EA9A0C"/>
<path d="M102.732 176.158H98.9741V188.258H102.732V176.158Z" fill="#FFD694"/>
<path d="M104.987 176.158H103.634V188.258H104.987V176.158Z" fill="#FFD694"/>
<path opacity="0.05" d="M122.421 189.611V174.881H132.116L132.943 176.159V188.333L132.116 189.611H122.421Z" fill="#231F20"/>
<path opacity="0.1" d="M94.7658 174.881V189.611H84.9961L84.1694 188.333V176.159L84.9961 174.881H94.7658Z" fill="white"/>
<path d="M132.943 190.888H84.1694V202.988H132.943V190.888Z" fill="#FFB229"/>
<path d="M132.116 189.611H84.9961L84.1694 190.888H132.943L132.116 189.611Z" fill="#FFC550"/>
<path d="M84.9961 204.341H132.116L132.943 202.988H84.1694L84.9961 204.341Z" fill="#EA9A0C"/>
<path d="M102.732 190.888H98.9741V202.988H102.732V190.888Z" fill="#FFD694"/>
<path d="M104.987 190.888H103.634V202.988H104.987V190.888Z" fill="#FFD694"/>
<path opacity="0.05" d="M122.421 204.341V189.611H132.116L132.943 190.888V202.988L132.116 204.341H122.421Z" fill="#231F20"/>
<path opacity="0.1" d="M94.7658 189.611V204.341H84.9961L84.1694 202.988V190.888L84.9961 189.611H94.7658Z" fill="white"/>
<path d="M132.943 205.618H84.1694V217.717H132.943V205.618Z" fill="#FFB229"/>
<path d="M132.116 204.34H84.9961L84.1694 205.618H132.943L132.116 204.34Z" fill="#FFC550"/>
<path d="M84.9961 218.994H132.116L132.943 217.717H84.1694L84.9961 218.994Z" fill="#EA9A0C"/>
<path d="M102.732 205.618H98.9741V217.717H102.732V205.618Z" fill="#FFD694"/>
<path d="M104.987 205.618H103.634V217.717H104.987V205.618Z" fill="#FFD694"/>
<path opacity="0.05" d="M122.421 218.995V204.34H132.116L132.943 205.618V217.717L132.116 218.995H122.421Z" fill="#231F20"/>
<path opacity="0.1" d="M94.7658 204.34V218.995H84.9961L84.1694 217.717V205.618L84.9961 204.34H94.7658Z" fill="white"/>
<path d="M99.1249 146.775H50.3516V158.874H99.1249V146.775Z" fill="#FFB229"/>
<path d="M98.2982 145.497H51.1782L50.3516 146.775H99.1249L98.2982 145.497Z" fill="#FFC550"/>
<path d="M51.1782 160.152H98.2982L99.1249 158.875H50.3516L51.1782 160.152Z" fill="#EA9A0C"/>
<path d="M68.9138 146.775H65.1562V158.874H68.9138V146.775Z" fill="#FFD694"/>
<path d="M71.1686 146.775H69.8159V158.874H71.1686V146.775Z" fill="#FFD694"/>
<path opacity="0.05" d="M88.6035 160.152V145.497H98.2981L99.1247 146.775V158.874L98.2981 160.152H88.6035Z" fill="#231F20"/>
<path opacity="0.1" d="M60.9479 145.497V160.152H51.1782L50.3516 158.874V146.775L51.1782 145.497H60.9479Z" fill="white"/>
<path d="M99.1249 161.503H50.3516V173.603H99.1249V161.503Z" fill="#FFB229"/>
<path d="M98.2982 160.151H51.1782L50.3516 161.504H99.1249L98.2982 160.151Z" fill="#FFC550"/>
<path d="M51.1782 174.881H98.2982L99.1249 173.603H50.3516L51.1782 174.881Z" fill="#EA9A0C"/>
<path d="M68.9138 161.503H65.1562V173.603H68.9138V161.503Z" fill="#FFD694"/>
<path d="M71.1686 161.503H69.8159V173.603H71.1686V161.503Z" fill="#FFD694"/>
<path opacity="0.05" d="M88.6035 174.881V160.151H98.2981L99.1247 161.504V173.603L98.2981 174.881H88.6035Z" fill="#231F20"/>
<path opacity="0.1" d="M60.9479 160.151V174.881H51.1782L50.3516 173.603V161.504L51.1782 160.151H60.9479Z" fill="white"/>
<path d="M99.1249 176.159H50.3516V188.259H99.1249V176.159Z" fill="#FFB229"/>
<path d="M98.2982 174.882H51.1782L50.3516 176.159H99.1249L98.2982 174.882Z" fill="#FFC550"/>
<path d="M51.1782 189.612H98.2982L99.1249 188.334H50.3516L51.1782 189.612Z" fill="#EA9A0C"/>
<path d="M68.9138 176.159H65.1562V188.259H68.9138V176.159Z" fill="#FFD694"/>
<path d="M71.1686 176.159H69.8159V188.259H71.1686V176.159Z" fill="#FFD694"/>
<path opacity="0.05" d="M88.6035 189.612V174.882H98.2981L99.1247 176.159V188.334L98.2981 189.612H88.6035Z" fill="#231F20"/>
<path opacity="0.1" d="M60.9479 174.882V189.612H51.1782L50.3516 188.334V176.159L51.1782 174.882H60.9479Z" fill="white"/>
<path d="M99.1249 190.889H50.3516V202.988H99.1249V190.889Z" fill="#FFB229"/>
<path d="M98.2982 189.612H51.1782L50.3516 190.889H99.1249L98.2982 189.612Z" fill="#FFC550"/>
<path d="M51.1782 204.341H98.2982L99.1249 202.988H50.3516L51.1782 204.341Z" fill="#EA9A0C"/>
<path d="M68.9138 190.889H65.1562V202.988H68.9138V190.889Z" fill="#FFD694"/>
<path d="M71.1686 190.889H69.8159V202.988H71.1686V190.889Z" fill="#FFD694"/>
<path opacity="0.05" d="M88.6035 204.342V189.612H98.2981L99.1247 190.889V202.989L98.2981 204.342H88.6035Z" fill="#231F20"/>
<path opacity="0.1" d="M60.9479 189.612V204.342H51.1782L50.3516 202.989V190.889L51.1782 189.612H60.9479Z" fill="white"/>
<path d="M99.1249 205.619H50.3516V217.718H99.1249V205.619Z" fill="#FFB229"/>
<path d="M98.2982 204.341H51.1782L50.3516 205.618H99.1249L98.2982 204.341Z" fill="#FFC550"/>
<path d="M51.1782 218.995H98.2982L99.1249 217.717H50.3516L51.1782 218.995Z" fill="#EA9A0C"/>
<path d="M68.9138 205.619H65.1562V217.718H68.9138V205.619Z" fill="#FFD694"/>
<path d="M71.1686 205.619H69.8159V217.718H71.1686V205.619Z" fill="#FFD694"/>
<path opacity="0.05" d="M88.6035 218.995V204.341H98.2981L99.1247 205.618V217.718L98.2981 218.995H88.6035Z" fill="#231F20"/>
<path opacity="0.1" d="M60.9479 204.341V218.995H51.1782L50.3516 217.718V205.618L51.1782 204.341H60.9479Z" fill="white"/>
<path opacity="0.25" d="M99.125 218.996V161.505L98.2983 160.152H101.38V218.996H99.125Z" fill="#231F20"/>
<path opacity="0.1" d="M120.317 218.995H131.29V164.06C117.086 166.389 106.189 178.714 106.189 193.594C106.264 204.341 111.9 213.735 120.317 218.995Z" fill="#231F20"/>
<path d="M146.473 217.073C160.559 211.387 167.369 195.358 161.683 181.272C155.997 167.185 139.969 160.375 125.882 166.061C111.796 171.747 104.986 187.776 110.672 201.862C116.358 215.949 132.386 222.759 146.473 217.073Z" fill="#FFB229"/>
<path d="M136.174 215.012C149.124 215.012 159.622 204.515 159.622 191.565C159.622 178.615 149.124 168.118 136.174 168.118C123.225 168.118 112.727 178.615 112.727 191.565C112.727 204.515 123.225 215.012 136.174 215.012Z" fill="#AF7000"/>
<path d="M136.174 214.111C148.626 214.111 158.72 204.017 158.72 191.565C158.72 179.114 148.626 169.02 136.174 169.02C123.723 169.02 113.629 179.114 113.629 191.565C113.629 204.017 123.723 214.111 136.174 214.111Z" fill="#FFBE2E"/>
<path d="M158.72 191.565C158.72 204.04 148.65 214.111 136.175 214.111C127.607 214.111 120.242 209.376 116.41 202.387C119.641 204.115 123.324 205.168 127.231 205.168C139.707 205.168 149.777 195.097 149.777 182.622C149.777 178.714 148.8 174.957 146.996 171.8C153.985 175.633 158.72 182.998 158.72 191.565Z" fill="#F2AB1D"/>
<path d="M142.713 190.963C141.285 189.911 139.631 189.085 137.903 188.483V182.547C138.655 182.697 139.331 183.073 140.007 183.599C140.608 184.125 141.21 184.651 141.736 185.177L144.817 182.096C144.216 181.57 143.69 181.043 143.164 180.668C142.638 180.217 142.187 179.916 141.661 179.616C141.135 179.315 140.533 179.09 140.007 178.864C139.406 178.714 138.73 178.563 137.903 178.488V176.083H134.747V178.488C133.845 178.639 133.018 178.864 132.116 179.165C131.29 179.54 130.538 179.991 129.862 180.517C129.185 181.043 128.659 181.72 128.284 182.547C127.908 183.298 127.682 184.2 127.682 185.177C127.682 187.206 128.359 188.709 129.787 189.836C130.914 190.663 132.567 191.565 134.747 192.391V198.93C133.845 198.704 133.018 198.328 132.417 197.802C131.816 197.276 131.215 196.6 130.764 195.773L127.307 198.704C128.284 200.057 129.411 201.034 130.538 201.71C131.741 202.387 133.093 202.837 134.747 202.988V207.046H137.903V203.063C140.007 202.837 141.661 202.311 142.863 201.334C144.366 200.207 145.118 198.479 145.193 196.374C145.193 196.224 145.193 196.074 145.193 195.999C145.193 193.819 144.366 192.166 142.713 190.963ZM137.828 193.669C138.429 193.97 138.955 194.27 139.331 194.496C140.233 195.022 140.684 195.623 140.684 196.45C140.684 196.9 140.608 197.276 140.458 197.577C140.308 197.877 140.082 198.103 139.782 198.328C139.481 198.554 139.181 198.704 138.88 198.854C138.504 199.005 138.204 199.08 137.828 199.155V193.669ZM133.845 186.905C133.544 186.755 133.244 186.605 133.018 186.379C132.793 186.154 132.567 185.928 132.342 185.703C132.191 185.402 132.041 185.177 132.041 184.801C132.041 184.425 132.116 184.125 132.267 183.899C132.417 183.599 132.642 183.373 132.868 183.223C133.093 182.997 133.394 182.922 133.695 182.772C133.995 182.697 134.296 182.622 134.596 182.547V187.356C134.371 187.206 134.145 187.056 133.845 186.905Z" fill="#D38D02"/>
</svg>
