<svg width="260" height="67" viewBox="0 0 260 67" fill="none" xmlns="http://www.w3.org/2000/svg">
<rect width="260" height="67" rx="5" fill="black"/>
<path d="M94.3642 23.7796H87.476V41H94.3642C99.1121 41 102.728 37.2607 102.728 32.3898C102.728 27.5188 99.1121 23.7796 94.3642 23.7796ZM94.3642 37.2115H91.4121V27.5681H94.3642C97.0703 27.5681 98.9399 29.4377 98.9399 32.3898C98.9399 35.3419 97.0703 37.2115 94.3642 37.2115ZM113.158 41.3444C118.103 41.3444 122.113 37.4575 122.113 32.3898C122.113 27.322 118.103 23.4351 113.158 23.4351C108.213 23.4351 104.204 27.322 104.204 32.3898C104.204 37.4575 108.213 41.3444 113.158 41.3444ZM113.158 37.5067C110.354 37.5067 108.14 35.4649 108.14 32.3898C108.14 29.3147 110.354 27.2728 113.158 27.2728C115.963 27.2728 118.177 29.3147 118.177 32.3898C118.177 35.4649 115.963 37.5067 113.158 37.5067ZM127.102 41H131.579L134.384 30.8399L137.188 41H141.666L146.414 23.7796H142.281L139.304 35.8339L135.983 23.7796H132.785L129.464 35.8339L126.487 23.7796H122.354L127.102 41ZM157.731 23.7796V33.1278L151.089 23.7796H148.137V41H152.073V31.6518L158.715 41H161.667V23.7796H157.731ZM168.553 37.2115V23.7796H164.617V41H174.704V37.2115H168.553ZM183.669 41.3444C188.613 41.3444 192.623 37.4575 192.623 32.3898C192.623 27.322 188.613 23.4351 183.669 23.4351C178.724 23.4351 174.714 27.322 174.714 32.3898C174.714 37.4575 178.724 41.3444 183.669 41.3444ZM183.669 37.5067C180.864 37.5067 178.65 35.4649 178.65 32.3898C178.65 29.3147 180.864 27.2728 183.669 27.2728C186.473 27.2728 188.687 29.3147 188.687 32.3898C188.687 35.4649 186.473 37.5067 183.669 37.5067ZM205.162 41H209.467L203.612 23.7796H198.594L192.739 41H197.044L197.905 38.2939H204.301L205.162 41ZM199.086 34.6038L201.103 28.2815L203.12 34.6038H199.086ZM217.824 23.7796H210.936V41H217.824C222.572 41 226.188 37.2607 226.188 32.3898C226.188 27.5188 222.572 23.7796 217.824 23.7796ZM217.824 37.2115H214.872V27.5681H217.824C220.53 27.5681 222.4 29.4377 222.4 32.3898C222.4 35.3419 220.53 37.2115 217.824 37.2115Z" fill="white"/>
<path d="M52.5003 49.5832C43.0652 49.5832 35.417 41.935 35.417 32.4998C35.417 23.0647 43.0652 15.4165 52.5003 15.4165C61.9355 15.4165 69.5837 23.0647 69.5837 32.4998C69.5734 41.9298 61.9303 49.5729 52.5003 49.5832ZM45.2006 37.261C44.9802 37.261 44.7616 37.2883 44.5463 37.3395L44.2901 37.4096L43.2753 39.147C43.09 39.4561 43.0305 39.8247 43.1091 40.1765C43.1877 40.5283 43.3984 40.8365 43.6978 41.0373C43.9971 41.2382 44.3621 41.3164 44.7175 41.2558C45.0728 41.1953 45.3913 41.0005 45.6072 40.7118L45.7131 40.5529L47.0627 38.2108C46.844 37.9183 46.5605 37.6803 46.2345 37.5155C45.9085 37.3507 45.5488 37.2636 45.1835 37.261H45.2006ZM54.5691 26.794C54.0376 27.2933 53.6852 27.9537 53.5663 28.6732C53.3759 29.6653 53.5584 30.6927 54.0788 31.5585L59.2722 40.5546C59.4529 40.8587 59.7411 41.084 60.0799 41.1858C60.4187 41.2877 60.7833 41.2587 61.1018 41.1047C61.4193 40.9481 61.6661 40.6774 61.7928 40.3468C61.9195 40.0162 61.9167 39.6499 61.7851 39.3212L61.7014 39.1504L60.3347 36.7741H62.3677C62.7237 36.7711 63.0653 36.6332 63.3236 36.3881C63.5819 36.1431 63.7376 35.8092 63.7592 35.4538C63.7809 35.0984 63.667 34.7481 63.4404 34.4734C63.2138 34.1988 62.8915 34.0204 62.5385 33.9741L62.3677 33.9639H58.7118L54.9637 27.4722L54.5725 26.7889L54.5691 26.794ZM42.6945 33.9519C42.5109 33.9524 42.3292 33.989 42.1598 34.0598C41.9905 34.1306 41.8367 34.2341 41.7074 34.3643C41.578 34.4946 41.4757 34.6491 41.4061 34.819C41.3366 34.9889 41.3013 35.1709 41.3022 35.3545C41.3022 36.0617 41.8284 36.6596 42.5305 36.7502L42.7013 36.7587H55.4797C55.6211 36.4747 55.6922 36.161 55.6872 35.8438C55.6821 35.5266 55.601 35.2152 55.4506 34.9359C55.3227 34.6742 55.1321 34.4483 54.8958 34.2781C54.6594 34.1079 54.3846 33.9988 54.0959 33.9605L53.8892 33.9502H49.5312L55.5582 23.514C55.7439 23.1905 55.7942 22.8067 55.6983 22.4463C55.6301 22.1933 55.4926 21.9645 55.3014 21.7854C55.1102 21.6063 54.8727 21.4841 54.6158 21.4327C54.359 21.3812 54.0928 21.4024 53.8473 21.494C53.6019 21.5855 53.3868 21.7438 53.2264 21.9509L53.1205 22.108L52.5003 23.1911L51.887 22.108C51.7063 21.8035 51.4177 21.578 51.0786 21.4761C50.7394 21.3742 50.3743 21.4034 50.0557 21.558C49.7383 21.7152 49.4918 21.9862 49.3651 22.317C49.2385 22.6478 49.2411 23.0142 49.3724 23.3432L49.4561 23.514L50.874 26.0082L46.2871 33.9519H42.6945Z" fill="white"/>
</svg>
