<svg width="260" height="67" viewBox="0 0 260 67" fill="none" xmlns="http://www.w3.org/2000/svg">
<rect width="260" height="66.7732" rx="5" fill="black"/>
<path d="M95.3642 22.7796H88.476V40H95.3642C100.112 40 103.728 36.2607 103.728 31.3898C103.728 26.5188 100.112 22.7796 95.3642 22.7796ZM95.3642 36.2115H92.4121V26.5681H95.3642C98.0703 26.5681 99.9399 28.4377 99.9399 31.3898C99.9399 34.3419 98.0703 36.2115 95.3642 36.2115ZM114.158 40.3444C119.103 40.3444 123.113 36.4575 123.113 31.3898C123.113 26.322 119.103 22.4351 114.158 22.4351C109.213 22.4351 105.204 26.322 105.204 31.3898C105.204 36.4575 109.213 40.3444 114.158 40.3444ZM114.158 36.5067C111.354 36.5067 109.14 34.4649 109.14 31.3898C109.14 28.3147 111.354 26.2728 114.158 26.2728C116.963 26.2728 119.177 28.3147 119.177 31.3898C119.177 34.4649 116.963 36.5067 114.158 36.5067ZM128.102 40H132.579L135.384 29.8399L138.188 40H142.666L147.414 22.7796H143.281L140.304 34.8339L136.983 22.7796H133.785L130.464 34.8339L127.487 22.7796H123.354L128.102 40ZM158.731 22.7796V32.1278L152.089 22.7796H149.137V40H153.073V30.6518L159.715 40H162.667V22.7796H158.731ZM169.553 36.2115V22.7796H165.617V40H175.704V36.2115H169.553ZM184.669 40.3444C189.613 40.3444 193.623 36.4575 193.623 31.3898C193.623 26.322 189.613 22.4351 184.669 22.4351C179.724 22.4351 175.714 26.322 175.714 31.3898C175.714 36.4575 179.724 40.3444 184.669 40.3444ZM184.669 36.5067C181.864 36.5067 179.65 34.4649 179.65 31.3898C179.65 28.3147 181.864 26.2728 184.669 26.2728C187.473 26.2728 189.687 28.3147 189.687 31.3898C189.687 34.4649 187.473 36.5067 184.669 36.5067ZM206.162 40H210.467L204.612 22.7796H199.594L193.739 40H198.044L198.905 37.2939H205.301L206.162 40ZM200.086 33.6038L202.103 27.2815L204.12 33.6038H200.086ZM218.824 22.7796H211.936V40H218.824C223.572 40 227.188 36.2607 227.188 31.3898C227.188 26.5188 223.572 22.7796 218.824 22.7796ZM218.824 36.2115H215.872V26.5681H218.824C221.53 26.5681 223.4 28.4377 223.4 31.3898C223.4 34.3419 221.53 36.2115 218.824 36.2115Z" fill="white"/>
<path d="M56.2885 32.0775L61.8329 27.1632L43.9248 18.2419C42.7379 17.6735 41.626 17.5938 40.651 18.2153L56.2885 32.0775ZM62.7779 37.8311L68.5416 34.9576C69.6666 34.3992 70.2835 33.6081 70.2835 32.7306C70.2835 31.8548 69.6666 31.062 68.5435 30.5036L63.3254 27.906L57.451 33.1112L62.7779 37.8311ZM39.6873 19.4235C39.5673 19.7509 39.4998 20.1166 39.4998 20.5171V44.9558C39.4998 45.589 39.6573 46.1341 39.9423 46.5679L55.1241 33.1096L39.6873 19.4235ZM56.2885 34.1399L41.191 47.5235C41.4798 47.6215 41.791 47.6731 42.1191 47.6731C42.7041 47.6731 43.3135 47.5202 43.9341 47.2144L61.2873 38.5773L56.2885 34.1399Z" fill="white"/>
</svg>
